<?xml version="1.0" encoding="UTF-8"?>
<svg version="1.1" xmlns="http://www.w3.org/2000/svg" width="512" height="512">
<path d="M0 0 C21.21019401 -0.09354806 42.42035387 -0.16403051 63.63071251 -0.20724869 C73.4796273 -0.22785132 83.32841371 -0.2559279 93.17724609 -0.30175781 C101.76406843 -0.34169603 110.35079776 -0.36744952 118.9377104 -0.37635398 C123.48211346 -0.38155691 128.0262505 -0.39373757 132.57056808 -0.42292023 C136.85350599 -0.45019985 141.13606992 -0.45841982 145.41908646 -0.45243073 C146.98553758 -0.45352538 148.55200205 -0.46140437 150.11837769 -0.4768219 C160.47924915 -0.57374458 168.4742895 0.45520459 177.3125 6.125 C184.25454565 13.55137441 185.7347599 21.1254836 185.60127258 31.02224731 C185.60554471 32.19460399 185.60981683 33.36696066 185.61421841 34.57484329 C185.62099146 37.80207937 185.6055167 41.02829288 185.58032811 44.25540829 C185.55862016 47.74537909 185.56605078 51.23530716 185.56983948 54.72532654 C185.57245399 60.76304375 185.55684292 66.80048961 185.52865028 72.83813858 C185.48791597 81.56738445 185.47498295 90.29649988 185.46871033 99.02583049 C185.45778267 113.19047168 185.42455011 127.35496843 185.37719727 141.51953125 C185.33126201 155.27440674 185.29588955 169.02924292 185.2746582 182.78417969 C185.27334459 183.63284619 185.27203097 184.4815127 185.27067754 185.35589637 C185.26415209 189.61365009 185.25783361 193.87140408 185.25161803 198.12915826 C185.19983266 233.41954178 185.11180918 268.70975753 185 304 C183.77416576 304.00634791 183.77416576 304.00634791 182.5235672 304.01282406 C162.62576918 304.11619226 142.72800606 304.22483919 122.83026886 304.33933926 C113.20782156 304.39458403 103.58537056 304.44805148 93.96289062 304.49731445 C85.57456497 304.54026361 77.18626564 304.58656832 68.79798079 304.63687855 C64.35772512 304.66339322 59.91747438 304.68824375 55.47718811 304.70907402 C51.29445804 304.72874911 47.11177768 304.75292438 42.92909241 304.78049088 C41.39730742 304.78980403 39.86551158 304.79749953 38.33370972 304.80341911 C29.21893444 304.78061582 29.21893444 304.78061582 20.15026855 305.57533264 C17 306 17 306 15 305 C13.23347131 304.90080064 11.46318157 304.86611671 9.69387627 304.8613348 C8.561274 304.85586036 7.42867174 304.85038591 6.26174819 304.84474558 C5.00690663 304.84376747 3.75206506 304.84278936 2.459198 304.84178162 C1.12103505 304.83721845 -0.21712646 304.83221879 -1.55528629 304.82681805 C-5.24487438 304.81319957 -8.93445323 304.80580789 -12.62405992 304.79939139 C-16.59816975 304.79140369 -20.57226025 304.77770033 -24.5463562 304.76467896 C-31.4358777 304.74289302 -38.32540113 304.72475629 -45.21493912 304.70907402 C-55.17614541 304.68639464 -65.13733031 304.65824916 -75.09851848 304.62875474 C-91.25854064 304.5810551 -107.41857154 304.53779736 -123.57861328 304.49731445 C-139.27979207 304.45797158 -154.9809631 304.41654827 -170.68212891 304.37231445 C-172.13302059 304.36822804 -172.13302059 304.36822804 -173.61322321 304.36405908 C-178.46552112 304.3503798 -183.31781892 304.33665949 -188.17011666 304.32291877 C-228.44672827 304.20891674 -268.72335662 304.10211564 -309 304 C-309.09156398 267.82888244 -309.16204301 231.65778521 -309.20426132 195.4865756 C-309.20926412 191.21582235 -309.21444141 186.94506932 -309.21972656 182.67431641 C-309.2207758 181.82408968 -309.22182505 180.97386295 -309.22290608 180.09787178 C-309.24030929 166.33277272 -309.27184652 152.5677405 -309.30861118 138.80268109 C-309.34602294 124.67749162 -309.36823635 110.55233716 -309.37635398 96.42710018 C-309.38184127 87.71169478 -309.3991697 78.99647833 -309.43166587 70.28113109 C-309.45281666 64.30393992 -309.45919877 58.32684639 -309.45400551 52.34962052 C-309.45144458 48.90149613 -309.45535837 45.45370185 -309.4768219 42.00563622 C-309.49671188 38.26407323 -309.49194159 34.52331986 -309.48101807 30.78173828 C-309.49266943 29.69612075 -309.5043208 28.61050322 -309.51632524 27.49198818 C-309.44722832 18.74059525 -307.06173959 12.42911775 -301 6 C-297.87641412 3.39701177 -296.48267373 2.98335608 -292.375 3.125 C-290.91349814 3.40035045 -289.45531789 3.69364173 -288 4 C-287.14398193 4.11496826 -286.28796387 4.22993652 -285.40600586 4.34838867 C-281.10503429 5.14040197 -278.00786101 5.8781636 -275.02246094 9.20117188 C-273.2260046 12.12896422 -271.68733311 15.09722273 -270.1875 18.1875 C-268.99601143 20.47267083 -267.80193399 22.75649341 -266.60546875 25.0390625 C-265.71093994 26.78364746 -265.71093994 26.78364746 -264.79833984 28.56347656 C-262.04030169 33.83392797 -259.0279789 38.94391541 -256 44.0625 C-254.85263785 46.02590919 -253.70550367 47.98945161 -252.55859375 49.953125 C-250.05161604 54.2267177 -247.51757569 58.48327906 -244.97265625 62.734375 C-244.31845703 63.83515381 -243.66425781 64.93593262 -242.99023438 66.07006836 C-241.72796907 68.1931871 -240.45743017 70.31141386 -239.17773438 72.42407227 C-238.61505859 73.37338623 -238.05238281 74.3227002 -237.47265625 75.30078125 C-236.71867554 76.55628784 -236.71867554 76.55628784 -235.94946289 77.8371582 C-235 80 -235 80 -236 83 C-237.73413086 84.25854492 -237.73413086 84.25854492 -239.96484375 85.48046875 C-240.76470703 85.92197266 -241.56457031 86.36347656 -242.38867188 86.81835938 C-243.22978516 87.27017578 -244.07089844 87.72199219 -244.9375 88.1875 C-245.77474609 88.65091797 -246.61199219 89.11433594 -247.47460938 89.59179688 C-253.71377946 93 -253.71377946 93 -256 93 C-255.68659668 93.52432617 -255.37319336 94.04865234 -255.05029297 94.58886719 C-253.64174132 96.96642245 -252.2582953 99.35766967 -250.875 101.75 C-250.38128906 102.575 -249.88757813 103.4 -249.37890625 104.25 C-248.92128906 105.04921875 -248.46367187 105.8484375 -247.9921875 106.671875 C-247.34805908 107.77160645 -247.34805908 107.77160645 -246.69091797 108.89355469 C-246 111 -246 111 -246.49584961 112.88745117 C-248.69117841 115.97074611 -251.3552331 118.51710273 -254.07421875 121.12890625 C-255.31213854 122.34150131 -256.54975887 123.55440216 -257.78710938 124.76757812 C-259.72704375 126.65825206 -261.66997991 128.54558672 -263.61889648 130.42700195 C-275.70776066 142.12346083 -286.12587231 153.23523276 -286.4375 170.875 C-286.33155565 183.5588931 -281.66560196 191.85931194 -273.19140625 200.9375 C-265.25625011 208.59220364 -254.46929805 212.37848618 -243.5234375 212.21484375 C-224.03169696 210.55533024 -211.8794325 196.07859898 -199 183 C-196.11491437 185.69423739 -194.10664579 188.23632873 -192.23046875 191.703125 C-191.73353516 192.60160156 -191.23660156 193.50007812 -190.72460938 194.42578125 C-189.7091076 196.29162061 -188.69603938 198.15878675 -187.68554688 200.02734375 C-180.36007526 213.24524749 -170.64397633 222.44663861 -156 227 C-141.33462387 231.01006379 -128.12535273 228.78261965 -114.75390625 221.65234375 C-106.46331364 216.67798818 -101.69573416 210.37585152 -97 202 C-96.37931641 200.93845703 -96.37931641 200.93845703 -95.74609375 199.85546875 C-90.31773824 189.37934354 -89.95456642 176.18396829 -93 165 C-96.12294012 156.28537707 -100.42374258 148.3842192 -105.125 140.4375 C-106.10327759 138.75599854 -106.10327759 138.75599854 -107.10131836 137.04052734 C-110.18748439 131.74230076 -113.31184484 126.47031399 -116.49609375 121.23046875 C-117.27799072 119.92734741 -117.27799072 119.92734741 -118.07568359 118.59790039 C-119.04501951 116.98568306 -120.0278503 115.38147984 -121.02587891 113.78686523 C-121.45175293 113.07602783 -121.87762695 112.36519043 -122.31640625 111.6328125 C-122.69224854 111.02324707 -123.06809082 110.41368164 -123.45532227 109.78564453 C-124 108 -124 108 -123.21411133 105.92480469 C-120.43848953 101.52444227 -117.39314798 97.8475295 -113 95 C-108.78249664 94.73826495 -105.06031076 95.94550182 -101 97 C-77.97527136 100.23442617 -54.68447772 94.34829584 -35.86328125 80.73046875 C-33.15860593 78.56451457 -30.56162228 76.33260307 -28 74 C-27.34515625 73.41476563 -26.6903125 72.82953125 -26.015625 72.2265625 C-9.01207241 56.20109037 -1.3781932 32.88669121 -0.4375 10.125 C-0.39431641 9.15046875 -0.35113281 8.1759375 -0.30664062 7.171875 C-0.20117726 4.78137198 -0.09905825 2.39077556 0 0 Z M54.625 49.625 C52.53523347 52.67927416 52.54523234 54.36185869 53 58 C53.89831016 60.30230766 53.89831016 60.30230766 55 62 C54.01 61.67 53.02 61.34 52 61 C20.81244639 58.5204544 -10.37542462 67.18837104 -34.38525391 87.58007812 C-49.18727821 99.87963944 -49.18727821 99.87963944 -57.33203125 116.1328125 C-57.21244701 119.21048003 -57.21244701 119.21048003 -54.875 121.9375 C-52.18834842 124.23640584 -52.18834842 124.23640584 -49.0625 124.25 C-44.70577792 122.47174609 -42.7959098 119.69529337 -40 116 C-24.09814418 95.21014857 -1.69984155 81.82955762 24.1953125 77.4609375 C28.93948371 76.88618164 33.66526218 76.64707992 38.4375 76.4375 C39.35982422 76.39431641 40.28214844 76.35113281 41.23242188 76.30664062 C43.48816163 76.20145069 45.74399499 76.09930893 48 76 C47.50371094 76.76054687 47.00742187 77.52109375 46.49609375 78.3046875 C44.73690495 80.94179497 44.73690495 80.94179497 45.0625 84.125 C45.79318324 87.02509197 45.79318324 87.02509197 47.6875 88.875 C50.80537903 90.39180601 52.51530803 90.33506654 56 90 C59.30539366 88.83977251 62.41680461 87.34763828 65.5625 85.8125 C66.39974609 85.42513672 67.23699219 85.03777344 68.09960938 84.63867188 C72.77457427 82.39927855 76.95736892 80.3420211 80 76 C80.44561963 69.24143564 76.37304249 64.44202939 72.625 59.1875 C71.73941406 57.90069336 71.73941406 57.90069336 70.8359375 56.58789062 C67.49228481 51.73615047 67.49228481 51.73615047 63 48 C59.38449608 47.53844631 57.66363906 47.54593117 54.625 49.625 Z M93.9375 81.5625 C91.65499867 84.77110849 91.65499867 84.77110849 92.4765625 87.8515625 C94.43825484 91.90572666 96.96135192 94.04297874 100.4375 96.8125 C101.02337891 97.30169922 101.60925781 97.79089844 102.21289062 98.29492188 C104.77890816 100.40074557 106.82654371 101.94218124 110 103 C110.68738028 104.32277382 111.35045626 105.65824177 112 107 C113.34298354 108.48786973 114.72245728 109.94313582 116.125 111.375 C121.6068724 117.35923049 125.2898422 123.84004635 129 131 C129.72703125 132.3921875 129.72703125 132.3921875 130.46875 133.8125 C136.62850263 146.43248099 138.98762075 159.9648071 139.5625 173.875 C139.60568359 174.84953125 139.64886719 175.8240625 139.69335938 176.828125 C139.79882274 179.21862802 139.90094175 181.60922444 140 184 C139.01 183.34 138.02 182.68 137 182 C133.08945759 181.57339537 130.87969422 181.41353719 127.5625 183.625 C125.47403714 186.79946355 125.60449255 188.20398832 126 192 C127.16266191 195.30460174 128.65231217 198.41670307 130.1875 201.5625 C130.57486328 202.39974609 130.96222656 203.23699219 131.36132812 204.09960938 C133.61539678 208.80521055 135.7194724 212.82370562 140 216 C143.34945355 216.8748212 145.18084376 216.44136276 148.20849609 214.81005859 C150.76467649 213.18012736 153.22728677 211.45877823 155.6875 209.6875 C156.96850586 208.79514648 156.96850586 208.79514648 158.27539062 207.88476562 C164.49064963 203.86502826 164.49064963 203.86502826 168.875 198.125 C169.05690005 195.0326991 167.75958742 193.47645636 166 191 C165.34 190.34 164.68 189.68 164 189 C161.77871445 188.97691403 161.77871445 188.97691403 159.375 189.375 C158.55773437 189.48585938 157.74046875 189.59671875 156.8984375 189.7109375 C156.27195312 189.80632812 155.64546875 189.90171875 155 190 C155.02356567 188.89881836 155.02356567 188.89881836 155.04760742 187.77539062 C155.48796137 167.19370774 155.48796137 167.19370774 152 147 C151.68289063 145.80246094 151.36578125 144.60492188 151.0390625 143.37109375 C143.59315317 118.47218417 126.66210208 93.41370528 104 80 C99.6474523 78.06188442 97.71265906 78.40369344 93.9375 81.5625 Z M29 108 C28.92773498 109.85287502 28.9161878 111.70833878 28.9375 113.5625 C28.94652344 114.57441406 28.95554687 115.58632812 28.96484375 116.62890625 C28.97644531 117.41136719 28.98804688 118.19382812 29 119 C27.783125 119.20625 26.56625 119.4125 25.3125 119.625 C18.78811113 121.04243912 12.95986752 124.07072972 7 127 C6.62488281 126.55527344 6.24976563 126.11054688 5.86328125 125.65234375 C5.35152344 125.08644531 4.83976562 124.52054688 4.3125 123.9375 C3.81363281 123.36902344 3.31476563 122.80054688 2.80078125 122.21484375 C1.04228407 120.79415578 1.04228407 120.79415578 -1.3125 120.9375 C-5.18751128 122.4694812 -7.49126864 125.06301343 -10.3125 128.0625 C-11.13717773 128.91424805 -11.13717773 128.91424805 -11.97851562 129.78320312 C-13.32827365 131.17990925 -14.66541525 132.58878837 -16 134 C-14.80594521 136.59882514 -13.995269 138.00419032 -11.8125 139.9375 C-11.214375 140.618125 -10.61625 141.29875 -10 142 C-10.38760326 145.85632396 -11.80015646 148.92589886 -13.5 152.375 C-15.53284853 156.70432296 -16.6828881 160.24332153 -17 165 C-18.17369141 164.98259766 -18.17369141 164.98259766 -19.37109375 164.96484375 C-20.38300781 164.95582031 -21.39492188 164.94679687 -22.4375 164.9375 C-23.44683594 164.92589844 -24.45617187 164.91429687 -25.49609375 164.90234375 C-27.94021067 164.71387324 -27.94021067 164.71387324 -29 166 C-29.08685603 167.56172745 -29.10702219 169.12729344 -29.09765625 170.69140625 C-29.09443359 171.63564453 -29.09121094 172.57988281 -29.08789062 173.55273438 C-29.07951172 174.54595703 -29.07113281 175.53917969 -29.0625 176.5625 C-29.05798828 177.55958984 -29.05347656 178.55667969 -29.04882812 179.58398438 C-29.03700023 182.05601487 -29.01906415 184.52801472 -29 187 C-25.04 187 -21.08 187 -17 187 C-16.9175 187.94875 -16.835 188.8975 -16.75 189.875 C-15.88758612 195.99938843 -13.41440918 201.87838623 -10 207 C-10.11004989 210.3014967 -11.26251193 211.28172012 -13.5625 213.75 C-14.366875 214.4925 -15.17125 215.235 -16 216 C-14.34136495 220.32504836 -11.128959 223.09418825 -7.875 226.25 C-7.31167969 226.80429687 -6.74835938 227.35859375 -6.16796875 227.9296875 C-4.78313972 229.29104485 -3.39216796 230.64614859 -2 232 C0.59586265 230.80482157 2.03448554 229.96228144 4 227.8125 C4.66 227.214375 5.32 226.61625 6 226 C9.36856508 226.4403353 12.27023641 227.9873687 15.3125 229.4375 C19.51133989 231.38495121 23.5098344 232.90240396 28 234 C28.495 239.445 28.495 239.445 29 245 C32.47921735 245.02683201 35.95823039 245.0467567 39.4375 245.0625 C40.43072266 245.07087891 41.42394531 245.07925781 42.44726562 245.08789062 C43.39150391 245.09111328 44.33574219 245.09433594 45.30859375 245.09765625 C46.18314209 245.10289307 47.05769043 245.10812988 47.95874023 245.11352539 C49.99440206 245.22784809 49.99440206 245.22784809 51 244 C51.23287008 242.31816052 51.41264166 240.6287584 51.5625 238.9375 C51.68818359 237.55884766 51.68818359 237.55884766 51.81640625 236.15234375 C51.87699219 235.44207031 51.93757813 234.73179687 52 234 C52.95261719 233.67386719 53.90523438 233.34773438 54.88671875 233.01171875 C56.15374769 232.57060497 57.42066913 232.12918229 58.6875 231.6875 C60.54955078 231.04361328 60.54955078 231.04361328 62.44921875 230.38671875 C65.56972893 229.16803766 68.1604532 227.74465848 71 226 C74.33829624 226 75.25871056 227.24107121 77.75 229.5625 C78.4925 230.366875 79.235 231.17125 80 232 C84.32504836 230.34136495 87.09418825 227.128959 90.25 223.875 C90.80429687 223.31167969 91.35859375 222.74835938 91.9296875 222.16796875 C93.29104485 220.78313972 94.64614859 219.39216796 96 218 C94.00250316 214.44678699 94.00250316 214.44678699 91.25 211.5 C90.8375 211.005 90.425 210.51 90 210 C90.45339994 206.14610054 91.7956404 203.08326454 93.5 199.625 C95.53284853 195.29567704 96.6828881 191.75667847 97 187 C97.78246094 187.01160156 98.56492187 187.02320313 99.37109375 187.03515625 C100.88896484 187.04869141 100.88896484 187.04869141 102.4375 187.0625 C103.44683594 187.07410156 104.45617187 187.08570313 105.49609375 187.09765625 C107.94021067 187.28612676 107.94021067 187.28612676 109 186 C109.09880797 184.52347336 109.13079245 183.04232764 109.1328125 181.5625 C109.13474609 180.22058594 109.13474609 180.22058594 109.13671875 178.8515625 C109.13285156 177.91054687 109.12898437 176.96953125 109.125 176 C109.12886719 175.05898437 109.13273438 174.11796875 109.13671875 173.1484375 C109.13542969 172.25382812 109.13414062 171.35921875 109.1328125 170.4375 C109.13112061 169.19806641 109.13112061 169.19806641 109.12939453 167.93359375 C109.21264807 165.99320961 109.21264807 165.99320961 108 165 C106.14712498 164.92773498 104.29166122 164.9161878 102.4375 164.9375 C101.42558594 164.94652344 100.41367187 164.95554688 99.37109375 164.96484375 C98.19740234 164.98224609 98.19740234 164.98224609 97 165 C96.773125 163.72125 96.54625 162.4425 96.3125 161.125 C95.29291915 156.37195396 93.35408718 152.54563762 90.92578125 148.359375 C89.76948439 145.41252561 90.00570475 143.97805908 91 141 C92.47522757 138.7702298 94.19393887 136.99129817 96 135 C91.39863498 129.46398272 86.53601728 124.60136502 81 120 C80.51789063 120.42152344 80.03578125 120.84304687 79.5390625 121.27734375 C78.59160156 122.09912109 78.59160156 122.09912109 77.625 122.9375 C76.99851562 123.48277344 76.37203125 124.02804688 75.7265625 124.58984375 C74 126 74 126 72 127 C70.11035238 126.13624532 68.26159329 125.18224819 66.4375 124.1875 C61.25247969 121.4917898 56.74560551 119.95760092 51 119 C51.01160156 118.21753906 51.02320313 117.43507813 51.03515625 116.62890625 C51.04417969 115.61699219 51.05320312 114.60507813 51.0625 113.5625 C51.07410156 112.55316406 51.08570313 111.54382813 51.09765625 110.50390625 C51.28612676 108.05978933 51.28612676 108.05978933 50 107 C48.52347336 106.90119203 47.04232764 106.86920755 45.5625 106.8671875 C44.66789062 106.86589844 43.77328125 106.86460937 42.8515625 106.86328125 C41.44003906 106.86908203 41.44003906 106.86908203 40 106.875 C39.05898438 106.87113281 38.11796875 106.86726563 37.1484375 106.86328125 C35.80652344 106.86521484 35.80652344 106.86521484 34.4375 106.8671875 C33.19806641 106.86887939 33.19806641 106.86887939 31.93359375 106.87060547 C29.99320961 106.78735193 29.99320961 106.78735193 29 108 Z M-76 143 C-77.0209375 143.67160156 -78.041875 144.34320313 -79.09375 145.03515625 C-80.56328125 146.03869141 -80.56328125 146.03869141 -82.0625 147.0625 C-82.96097656 147.67222656 -83.85945312 148.28195313 -84.78515625 148.91015625 C-87.48234687 151.45512448 -88.24983104 153.39341846 -89 157 C-87.88483109 159.38964766 -86.86049542 161.13950458 -85 163 C-80.34911285 163.30523962 -80.34911285 163.30523962 -76 162 C-75.98541748 162.76441406 -75.97083496 163.52882812 -75.95581055 164.31640625 C-75.26705221 196.67587905 -69.97499636 225.98954694 -48 251 C-47.33742188 251.80566406 -46.67484375 252.61132812 -45.9921875 253.44140625 C-40.15208223 260.32669642 -29.59304183 272.28336502 -20.125 273.3125 C-16.95475233 273.24784917 -16.95475233 273.24784917 -14.625 271.375 C-12.48676569 268.24988831 -12.3170331 266.71837535 -13 263 C-16.17924835 259.50452091 -19.68005685 256.55766261 -23.375 253.625 C-41.82989544 238.57033897 -52.94522118 219.18915479 -58 196 C-58.18433594 195.19949219 -58.36867188 194.39898437 -58.55859375 193.57421875 C-59.15685439 190.08524742 -59.40222915 186.59079715 -59.625 183.0625 C-59.70234375 182.02706055 -59.70234375 182.02706055 -59.78125 180.97070312 C-60.04926844 176.8124759 -59.85498834 173.07714587 -59 169 C-58.01 169.66 -57.02 170.32 -56 171 C-52.31743715 170.8684799 -49.90251763 170.73329557 -47 168.375 C-45.31314075 164.36870928 -46.38432554 160.65595201 -47.84960938 156.71484375 C-48.92669453 154.21713784 -50.07261156 151.76444001 -51.25 149.3125 C-51.63285156 148.47138672 -52.01570313 147.63027344 -52.41015625 146.76367188 C-54.59693836 142.15241395 -56.43041789 138.64133488 -61 136 C-67.17426038 136 -71.00972662 139.59812549 -76 143 Z M118.15869141 238.60473633 C100.68491681 259.96051561 77.36380982 272.15700191 50.125 275.75 C36.70588235 276.85294118 36.70588235 276.85294118 33 275 C33.391875 274.113125 33.78375 273.22625 34.1875 272.3125 C35.34428314 269.03700398 35.34428314 269.03700398 33.8125 266.25 C32.02368613 263.79913665 32.02368613 263.79913665 29 262 C23.29486698 262.23268669 18.43003644 264.88219402 13.375 267.3125 C12.529375 267.70373047 11.68375 268.09496094 10.8125 268.49804688 C4.66113485 271.2932944 4.66113485 271.2932944 0 276 C-1.04614845 282.38928679 2.23770968 285.95408136 5.79296875 290.94140625 C6.52128906 291.95074219 7.24960937 292.96007812 8 294 C8.57363281 294.91652344 9.14726562 295.83304687 9.73828125 296.77734375 C12.74647306 301.41311018 12.74647306 301.41311018 17.58984375 303.65625 C20.26139968 303.74824045 22.42737499 303.73369196 25 303 C27.38312904 300.10269959 27.38312904 300.10269959 26.6875 296.4375 C26.18820203 293.15713956 26.18820203 293.15713956 25 291 C26.27875 291.165 27.5575 291.33 28.875 291.5 C59.00938688 294.71868838 89.02852049 284.78220781 112.625 266.18359375 C128.54086936 253.24745458 128.54086936 253.24745458 137.5 235.875 C137.1924606 232.92886904 137.1924606 232.92886904 135.375 230.625 C127.44744183 225.20088126 122.9263108 232.76937818 118.15869141 238.60473633 Z " fill="#00485F" transform="translate(318,76)"/>
<path d="M0 0 C163.02 0 326.04 0 494 0 C494 29.81132075 494 29.81132075 485.6875 38.4375 C480.0359474 43.20644237 473.11567439 44.44892685 465.94767761 44.37752342 C465.17432198 44.38188374 464.40096634 44.38624407 463.60417569 44.39073652 C461.0213368 44.40165601 458.43903586 44.39128638 455.85620117 44.38095093 C453.98233613 44.3844088 452.10847313 44.38917423 450.23461437 44.39513266 C445.09176412 44.40765452 439.94908091 44.40146682 434.80623007 44.39217401 C429.25741539 44.38538875 423.70862952 44.39586216 418.15982056 44.40411377 C407.29222001 44.41745886 396.42468159 44.41456989 385.5570786 44.40587585 C376.72533359 44.39910277 367.893606 44.39818095 359.06185913 44.4014473 C357.80523883 44.401907 356.54861853 44.40236669 355.25391883 44.40284032 C352.70117894 44.40379949 350.14843906 44.40477213 347.59569919 44.4057581 C324.33701728 44.41407032 301.07837175 44.40544785 277.81969754 44.38973031 C256.59104323 44.37549368 235.3624429 44.37676757 214.13378906 44.39111328 C190.27862084 44.40718007 166.42348239 44.41349027 142.56830692 44.40427649 C140.02491824 44.40332084 137.48152956 44.40237772 134.93814087 44.4014473 C133.68672041 44.40098447 132.43529994 44.40052164 131.14595765 44.40004479 C122.32405351 44.3974537 113.50216851 44.40182847 104.68026733 44.40888596 C93.93042721 44.41729668 83.18065281 44.41502976 72.43082023 44.39904372 C66.94531496 44.39115531 61.4599193 44.38807921 55.97441483 44.39799118 C50.95342444 44.40692664 45.93264534 44.40202404 40.91167414 44.38605852 C39.0948268 44.38270587 37.27796162 44.38441565 35.46112573 44.39168589 C32.99127099 44.40081151 30.52213948 44.39144871 28.05232239 44.37752342 C26.99471748 44.38805867 26.99471748 44.38805867 25.91574681 44.39880675 C19.55574979 44.32715966 13.25801898 42.61067093 8.3125 38.4375 C-3.30437731 26.38224996 0 17.46540415 0 0 Z " fill="#00495F" transform="translate(9,395)"/>
<path d="M0 0 C0.8765625 -0.00386719 1.753125 -0.00773438 2.65625 -0.01171875 C7.21806549 -0.00484855 11.51177028 0.19487345 16 1.125 C14.45872649 4.83768094 12.19156766 7.10615698 9.3125 9.875 C6.34189202 12.73934984 3.54841336 15.63911694 0.8984375 18.796875 C-2.05086849 22.22104539 -5.23819199 25.17892139 -8.63671875 28.15625 C-18.86701952 36.52818541 -18.86701952 36.52818541 -25.73144531 47.31542969 C-25.85630893 51.55867619 -23.97025258 55.1160545 -22.07421875 58.78125 C-19.85514634 63.62286253 -18.71001034 68.87466198 -17.3125 74 C-16.71129635 76.08272435 -16.10369803 78.16361859 -15.48828125 80.2421875 C-15.22571533 81.13534668 -14.96314941 82.02850586 -14.69262695 82.94873047 C-14.05720302 85.13967277 -14.05720302 85.13967277 -13 87.125 C8.06666288 96.37623212 8.06666288 96.37623212 30.18243408 96.39990234 C38.61087091 92.02641632 44.53730026 83.8143837 49.85375977 76.17480469 C54.08912705 70.15635307 59.13760175 64.84013852 64.3125 59.625 C65.15425781 58.7690625 65.99601563 57.913125 66.86328125 57.03125 C69 55.125 69 55.125 71 55.125 C76.47620114 74.22598958 72.74355312 94.15871257 63.33984375 111.35546875 C59.76138605 117.41618277 55.04174865 122.26970655 50 127.125 C49.35546875 127.78886719 48.7109375 128.45273438 48.046875 129.13671875 C34.14307375 142.58713518 15.66700305 146.58374556 -3.00219727 146.63330078 C-9.54789501 146.49993665 -15.15649448 145.46306768 -21.375 143.5 C-24.10322536 142.64502455 -26.07562889 142.3087633 -29 142.125 C-33.35999572 144.74621898 -36.14834176 147.94910734 -39 152.125 C-41.50750725 149.83791778 -43.06960275 147.49914894 -44.71484375 144.5390625 C-45.48828125 143.15835571 -45.48828125 143.15835571 -46.27734375 141.74975586 C-46.82519531 140.75983643 -47.37304688 139.76991699 -47.9375 138.75 C-49.10196726 136.65965613 -50.26735251 134.56982341 -51.43359375 132.48046875 C-52.0251123 131.42005371 -52.61663086 130.35963867 -53.22607422 129.26708984 C-54.90130015 126.29982343 -56.61362779 123.35898672 -58.34765625 120.42578125 C-69.7625655 101.07703119 -77.73310236 80.92586975 -72.53369141 58.07568359 C-67.56018528 38.96976167 -57.1374713 21.39263133 -39.99438477 10.76220703 C-27.505876 3.515551 -14.42553435 -0.06364206 0 0 Z " fill="#EF4338" transform="translate(230,12.875)"/>
<path d="M0 0 C2.00939253 -0.03320673 4.01872137 -0.07048002 6.02796936 -0.11151123 C11.48310007 -0.208378 16.93672916 -0.24006201 22.39263654 -0.25405884 C25.80444027 -0.26561837 29.21585915 -0.2909147 32.62754631 -0.32104492 C44.54065569 -0.42555087 56.45265657 -0.47614763 68.36621094 -0.47851562 C79.45429889 -0.48217909 90.5367308 -0.60512204 101.62325436 -0.78378677 C111.1540974 -0.93192128 120.68308656 -0.99471118 130.21507305 -0.99227524 C135.90339655 -0.99233183 141.58638002 -1.02651778 147.27353096 -1.14733887 C181.75634699 -1.83250158 181.75634699 -1.83250158 189.72877121 3.6100769 C194.40443795 8.65676495 196.73636515 14.15987261 198.66433525 20.68870544 C200.21527367 25.24967804 202.8314847 29.06315313 205.48999023 33.046875 C209.67246328 39.55606038 209.67246328 39.55606038 209.43530273 43.38671875 C208.61499023 45.484375 208.61499023 45.484375 207.61499023 46.484375 C204.43408477 46.58913682 201.27468553 46.62768647 198.09315491 46.62481689 C196.57490849 46.62927358 196.57490849 46.62927358 195.02599043 46.6338203 C191.60651148 46.64254887 188.18706736 46.64401903 184.76757812 46.64550781 C182.3273562 46.650133 179.88713501 46.65515724 177.44691467 46.66055298 C170.79828997 46.67370665 164.14967901 46.68016378 157.50104451 46.68456364 C153.35297915 46.68732272 149.20491612 46.69155943 145.05685234 46.69606781 C133.58154604 46.70826247 122.10624163 46.71856167 110.63092899 46.7219429 C109.52853497 46.72227225 109.52853497 46.72227225 108.40387037 46.72260825 C107.66714229 46.72282653 106.93041421 46.72304481 106.17136103 46.7232697 C104.67836829 46.72371317 103.18537555 46.72415974 101.69238281 46.72460938 C100.95180047 46.7248308 100.21121813 46.72505223 99.4481939 46.72528037 C87.44124096 46.72923053 75.43434864 46.74669029 63.42741913 46.7699689 C51.11250025 46.79365276 38.79761181 46.80614338 26.48266977 46.80731082 C19.56323761 46.80822921 12.64388443 46.81402263 5.72447395 46.83213043 C-0.78022696 46.84909248 -7.28480398 46.85080632 -13.7895298 46.84199142 C-16.18334224 46.84121671 -18.57716251 46.84562029 -20.9709549 46.85544968 C-24.22621635 46.86803757 -27.48093431 46.86236453 -30.7361908 46.85186768 C-31.69463817 46.85992408 -32.65308555 46.86798048 -33.64057678 46.87628102 C-34.50782428 46.86969118 -35.37507178 46.86310133 -36.26859951 46.8563118 C-37.02066313 46.85690889 -37.77272675 46.85750597 -38.54758018 46.85812116 C-40.38500977 46.484375 -40.38500977 46.484375 -42.38500977 43.484375 C-42.08033171 39.17561701 -40.19669192 36.09316459 -37.99829102 32.44140625 C-37.65879929 31.87290451 -37.31930756 31.30440277 -36.9695282 30.71867371 C-35.88564463 28.90723041 -34.79181755 27.10203584 -33.69750977 25.296875 C-32.981346 24.10391698 -32.26584521 22.91056068 -31.55102539 21.71679688 C-27.73933843 15.35852345 -27.73933843 15.35852345 -26.45234299 13.37380695 C-25.28628159 11.44696444 -25.28628159 11.44696444 -24.54561234 9.00390148 C-20.1509704 -1.74565127 -9.94529051 -0.01287504 0 0 Z " fill="#00495F" transform="translate(172.385009765625,452.515625)"/>
<path d="M0 0 C2.67813752 2.4150749 4.3043511 5.01052912 6.08203125 8.13671875 C6.97535156 9.69773315 6.97535156 9.69773315 7.88671875 11.2902832 C8.52222656 12.41136475 9.15773438 13.53244629 9.8125 14.6875 C10.81811272 16.44964204 11.82541576 18.21081038 12.83285522 19.97190857 C13.52351695 21.17941599 14.21363585 22.38723404 14.90322876 23.59535217 C17.80060414 28.66730978 20.74521896 33.71074856 23.70288086 38.74780273 C25.99721024 42.66041199 28.27120081 46.58466739 30.54492188 50.50927734 C31.79611637 52.65100323 33.07100904 54.77508972 34.359375 56.89453125 C40.19760188 66.87017924 42.4074796 77.14428574 39.75390625 88.54296875 C36.84354077 98.02804587 30.91719595 105.99530464 22.23046875 110.96875 C11.14544757 116.09387363 1.51126129 116.07251978 -9.91796875 112.25390625 C-21.87942102 107.38745989 -28.1234076 96.31198762 -34.0625 85.4375 C-35.18987082 83.40800049 -36.31883193 81.37938372 -37.44921875 79.3515625 C-38.02849121 78.31032227 -38.60776367 77.26908203 -39.20458984 76.19628906 C-42.19906994 70.86534896 -45.28517205 65.58857805 -48.375 60.3125 C-48.93324463 59.35851318 -49.49148926 58.40452637 -50.06665039 57.42163086 C-51.15038457 55.57067402 -52.23460167 53.71999983 -53.31933594 51.86962891 C-56.21986465 46.9171573 -59.10963381 41.95840744 -62 37 C-59.22262654 34.01114732 -56.56071009 31.98949092 -52.984375 30.0390625 C-51.99179688 29.4917749 -50.99921875 28.9444873 -49.9765625 28.38061523 C-48.37941406 27.51158569 -48.37941406 27.51158569 -46.75 26.625 C-44.49375012 25.38079312 -42.23856967 24.13464529 -39.984375 22.88671875 C-38.83001953 22.24782715 -37.67566406 21.60893555 -36.48632812 20.95068359 C-29.95564689 17.29661195 -23.50839768 13.50027016 -17.05761719 9.70751953 C-11.41347294 6.39268908 -5.7395544 3.14701185 0 0 Z " fill="#EF4238" transform="translate(172,176)"/>
<path d="M0 0 C5.18002136 0.23805245 8.21727554 3.24905669 12 6.4375 C13.32329662 7.52586174 14.64753456 8.61307985 15.97265625 9.69921875 C16.6392627 10.24884277 17.30586914 10.7984668 17.99267578 11.36474609 C21.09248644 13.88998713 24.25999351 16.3237265 27.4375 18.75 C28.27958008 19.39473267 28.27958008 19.39473267 29.13867188 20.05249023 C30.4247436 21.03635136 31.71219843 22.0184042 33 23 C32.76603516 24.28583984 32.76603516 24.28583984 32.52734375 25.59765625 C32.33269531 26.74105469 32.13804688 27.88445313 31.9375 29.0625 C31.74027344 30.18785156 31.54304688 31.31320313 31.33984375 32.47265625 C30.4622747 41.58121776 34.06935259 47.22616487 38.625 54.8125 C39.3037758 55.9618548 39.98132545 57.11193451 40.65771484 58.26269531 C42.06405054 60.65332973 43.47560616 63.0407655 44.890625 65.42626953 C48.19079095 71.0021056 51.40162015 76.62956389 54.625 82.25 C58.30735072 88.66862952 62.01868023 95.06207244 65.8671875 101.3828125 C66.47868652 102.39311523 67.09018555 103.40341797 67.72021484 104.44433594 C68.87908811 106.35258213 70.04820047 108.25465972 71.22900391 110.14941406 C71.74124512 110.9947168 72.25348633 111.84001953 72.78125 112.7109375 C73.4628418 113.81381104 73.4628418 113.81381104 74.15820312 114.93896484 C75 117 75 117 75.02758789 119.02490234 C73.43387031 122.08814188 70.71161001 123.29940102 67.77734375 124.890625 C67.15726944 125.24010193 66.53719513 125.58957886 65.89833069 125.949646 C63.91799225 127.06208958 61.92814137 128.15611964 59.9375 129.25 C58.59243261 130.0014126 57.24802256 130.75400319 55.90429688 131.5078125 C52.6103339 133.35229278 49.30772541 135.18032424 46 137 C42.82559186 134.07370751 40.7465497 131.15654511 38.63671875 127.3984375 C38.00475586 126.28154541 37.37279297 125.16465332 36.72167969 124.01391602 C36.04359578 122.80095744 35.36553651 121.58798508 34.6875 120.375 C33.97764514 119.11667871 33.26702124 117.85879097 32.55566406 116.60131836 C31.45801872 114.66082665 30.36083834 112.72008923 29.26602173 110.77799988 C25.03011945 103.26541467 20.72960987 95.78975768 16.3659668 88.35058594 C13.38647954 83.25098062 10.53345111 78.14637097 7.921875 72.84765625 C3.37122841 62.62631956 3.37122841 62.62631956 -5.0078125 55.95703125 C-7.71827235 55.15603922 -10.09973939 54.83285007 -12.9453125 54.52734375 C-13.95335937 54.35332031 -14.96140625 54.17929688 -16 54 C-18.21315325 50.79131235 -18.54791785 47.34776489 -19.0703125 43.546875 C-19.24433594 42.28746094 -19.41835938 41.02804688 -19.59765625 39.73046875 C-19.68418457 39.0761084 -19.77071289 38.42174805 -19.85986328 37.74755859 C-20.12244642 35.76923885 -20.3990474 33.79279622 -20.67578125 31.81640625 C-21.53296295 25.49388561 -22.24293941 19.38120862 -22 13 C-21.36908447 12.64172119 -20.73816895 12.28344238 -20.08813477 11.91430664 C-17.24530263 10.29870948 -14.40388601 8.68063903 -11.5625 7.0625 C-10.56927734 6.49853516 -9.57605469 5.93457031 -8.55273438 5.35351562 C-7.60849609 4.81533203 -6.66425781 4.27714844 -5.69140625 3.72265625 C-4.81685791 3.22515869 -3.94230957 2.72766113 -3.04125977 2.21508789 C-1.07742483 1.15939808 -1.07742483 1.15939808 0 0 Z " fill="#EF4238" transform="translate(51,13)"/>
<path d="M0 0 C1.23681641 1.74414062 1.23681641 1.74414062 2.6015625 4.15625 C3.33632812 5.44208984 3.33632812 5.44208984 4.0859375 6.75390625 C4.59382813 7.66011719 5.10171875 8.56632813 5.625 9.5 C6.140625 10.40621094 6.65625 11.31242188 7.1875 12.24609375 C8.46507852 14.4936856 9.73551992 16.74502104 11 19 C12.98 18.67 14.96 18.34 17 18 C19.40109851 21.90122864 21.76616322 25.82309839 24.125 29.75 C25.15173828 31.41675781 25.15173828 31.41675781 26.19921875 33.1171875 C26.83730469 34.18710938 27.47539063 35.25703125 28.1328125 36.359375 C29.02830811 37.83615723 29.02830811 37.83615723 29.94189453 39.34277344 C31 42 31 42 30.4609375 44.04980469 C27.45352807 48.06437463 23.85750337 51.51430819 20.31640625 55.05419922 C18.88980558 56.48514928 17.47996094 57.93127918 16.0703125 59.37890625 C8.96024589 66.51910026 2.71644015 71.41083858 -7.5625 72.3125 C-15.12004984 72.15768985 -21.91950042 69.46057782 -27.4375 64.3125 C-33.76633787 57.24291519 -35.42485235 50.90238866 -35.62890625 41.50390625 C-33.58225687 30.10114543 -25.73603436 23.04295854 -17.76977539 15.28271484 C-15.79412223 13.35708757 -13.83835939 11.41282444 -11.88476562 9.46484375 C-10.63911982 8.23326247 -9.39241346 7.00275272 -8.14453125 5.7734375 C-7.55807327 5.19234222 -6.9716153 4.61124695 -6.36738586 4.01254272 C-2.23341666 0 -2.23341666 0 0 0 Z " fill="#EF4238" transform="translate(81,202)"/>
<path d="M0 0 C6.09437924 4.97173043 10.40797523 11.59125634 11.75 19.375 C12.61668317 28.13662517 11.30638912 35.38916635 6.13671875 42.63671875 C0.52894195 49.36356409 -5.64734643 53.8041135 -14.546875 54.7109375 C-24.65244938 54.82525395 -32.08148647 53.66931043 -39.625 46.625 C-46.46673926 39.23039292 -48.6338842 31.73707761 -48.5234375 21.796875 C-47.83296388 13.15609084 -43.82793667 5.98119602 -37.25 0.375 C-25.4163299 -7.05802403 -11.85089917 -8.14183912 0 0 Z " fill="#00485F" transform="translate(376.25,227.625)"/>
<path d="M0 0 C1.62573242 2.15551758 1.62573242 2.15551758 3.35546875 5.14453125 C3.97744141 6.21380859 4.59941406 7.28308594 5.24023438 8.38476562 C5.88283203 9.51591797 6.52542969 10.64707031 7.1875 11.8125 C7.84169922 12.93205078 8.49589844 14.05160156 9.16992188 15.20507812 C14 23.59098019 14 23.59098019 14 27 C13.2879541 27.40613525 12.5759082 27.81227051 11.84228516 28.23071289 C-1.3475263 35.75584521 -14.53172174 43.29048114 -27.6875 50.875 C-28.75597168 51.49068848 -29.82444336 52.10637695 -30.92529297 52.74072266 C-35.7428763 55.52190776 -40.55072247 58.31699642 -45.33203125 61.16015625 C-46.52856323 61.87099365 -46.52856323 61.87099365 -47.74926758 62.59619141 C-49.20342336 63.4627856 -50.65526094 64.33328704 -52.10424805 65.20849609 C-56.7818544 68 -56.7818544 68 -59 68 C-63.95 59.42 -68.9 50.84 -74 42 C-71.17078488 39.17078488 -68.87736324 37.64216959 -65.42578125 35.69921875 C-64.29495117 35.05863525 -63.16412109 34.41805176 -61.99902344 33.75805664 C-61.39828003 33.4206546 -60.79753662 33.08325256 -60.17858887 32.73562622 C-57.0003604 30.95051049 -53.83093639 29.14986358 -50.66015625 27.3515625 C-50.0156955 26.98666214 -49.37123474 26.62176178 -48.70724487 26.24580383 C-42.52236668 22.7400153 -36.38304987 19.1580962 -30.25 15.5625 C-15.922355 7.19035033 -15.922355 7.19035033 -9.6875 3.625 C-9.04135742 3.24931885 -8.39521484 2.8736377 -7.72949219 2.48657227 C-4.92158925 0.89355328 -3.28707267 0 0 0 Z " fill="#EF4338" transform="translate(156,134)"/>
<path d="M0 0 C9.9 0 19.8 0 30 0 C30 4.29 30 8.58 30 13 C30.22717605 15.77686475 30.5082515 18.55060168 30.875 21.3125 C30.9587085 21.99054688 31.04241699 22.66859375 31.12866211 23.3671875 C31.59610574 26.93160618 32.3137059 30.13684552 33.5625 33.5 C34 37 34 37 32.56640625 39.25 C30.80145016 41.29550243 28.99008591 43.17494561 27 45 C23.10421946 43.70140649 22.73894857 42.30831476 20.7421875 38.77734375 C20.12029541 37.68808594 19.49840332 36.59882812 18.85766602 35.4765625 C18.1964685 34.29704807 17.53558544 33.11735733 16.875 31.9375 C16.20117552 30.74828055 15.52661299 29.55947899 14.85131836 28.37109375 C13.51254288 26.01175397 12.17906239 23.64954717 10.85009766 21.28466797 C9.25003351 18.44391011 7.6361612 15.61201292 6.01171875 12.78515625 C5.19494899 11.35697866 4.37850938 9.92861218 3.5625 8.5 C3.0063501 7.53308228 3.0063501 7.53308228 2.43896484 6.54663086 C0 2.23039131 0 2.23039131 0 0 Z " fill="#00495F" transform="translate(112,76)"/>
<path d="M0 0 C14.85 0 29.7 0 45 0 C42.69801039 4.60397922 39.91193236 7.63839101 36.375 11.3125 C35.78332031 11.97056641 35.19164062 12.62863281 34.58203125 13.30664062 C32.80002387 15.14830484 31.18265558 16.65497593 29 18 C25.79329699 18.03552239 23.97498876 17.81753574 21 17 C19.46245403 16.70720496 17.92468627 16.41557265 16.38671875 16.125 C4.08606183 13.31994721 4.08606183 13.31994721 1.16796875 9.7734375 C0.05284047 6.40058645 0 3.5303934 0 0 Z " fill="#00495F" transform="translate(225,76)"/>
</svg>
